<svg xmlns="http://www.w3.org/2000/svg" viewBox="0 0 70.3 70.04"><defs><style>.cls-1{fill:#ffd617;}</style></defs><title>europa-logo</title><g id="Layer_2" data-name="Layer 2"><g id="Layer_1-2" data-name="Layer 1"><polygon class="cls-1" points="36.34 4.43 40.9 4.43 37.22 7.29 38.65 11.84 34.99 9.04 31.33 11.84 32.77 7.29 29.07 4.43 33.61 4.43 34.99 0 36.34 4.43 36.34 4.43 36.34 4.43"/><polygon class="cls-1" points="36.5 62.91 41.06 62.91 37.39 65.67 38.82 70.04 35.16 67.35 31.49 70.04 32.94 65.67 29.23 62.91 33.78 62.91 35.16 58.65 36.5 62.91 36.5 62.91 36.5 62.91"/><polygon class="cls-1" points="50.97 59.04 55.53 59.04 51.86 61.8 53.29 66.17 49.63 63.47 45.96 66.17 47.41 61.8 43.69 59.04 48.24 59.04 49.63 54.78 50.97 59.04 50.97 59.04 50.97 59.04"/><polygon class="cls-1" points="50.97 8.33 55.53 8.33 51.86 11.09 53.29 15.46 49.63 12.77 45.96 15.46 47.41 11.09 43.69 8.33 48.24 8.33 49.63 4.07 50.97 8.33 50.97 8.33 50.97 8.33"/><polygon class="cls-1" points="61.71 19.07 66.27 19.07 62.59 21.82 64.02 26.2 60.35 23.5 56.7 26.2 58.15 21.82 54.43 19.07 58.98 19.07 60.35 14.81 61.71 19.07 61.71 19.07 61.71 19.07"/><polygon class="cls-1" points="61.71 48.45 66.27 48.45 62.59 51.21 64.02 55.58 60.35 52.88 56.7 55.58 58.15 51.21 54.43 48.45 58.98 48.45 60.35 44.18 61.71 48.45 61.71 48.45 61.71 48.45"/><polygon class="cls-1" points="65.73 33.53 70.3 33.53 66.62 36.29 68.05 40.67 64.39 37.97 60.73 40.67 62.17 36.29 58.46 33.53 63 33.53 64.39 29.27 65.73 33.53 65.73 33.53 65.73 33.53"/><polygon class="cls-1" points="21.59 8.37 26.15 8.37 22.48 11.13 23.9 15.5 20.24 12.8 16.58 15.5 18.02 11.13 14.32 8.37 18.86 8.37 20.24 4.11 21.59 8.37 21.59 8.37 21.59 8.37"/><polygon class="cls-1" points="11.15 19.11 15.72 19.11 12.04 21.86 13.46 26.24 9.81 23.54 6.14 26.24 7.58 21.86 3.87 19.11 8.43 19.11 9.81 14.85 11.15 19.11 11.15 19.11 11.15 19.11"/><polygon class="cls-1" points="7.27 33.57 11.84 33.57 8.16 36.33 9.59 40.7 5.93 38.01 2.27 40.7 3.71 36.33 0 33.57 4.55 33.57 5.93 29.31 7.27 33.57 7.27 33.57 7.27 33.57"/><polygon class="cls-1" points="11.15 48.48 15.72 48.48 12.04 51.24 13.46 55.62 9.81 52.92 6.14 55.62 7.58 51.24 3.87 48.48 8.43 48.48 9.81 44.23 11.15 48.48 11.15 48.48 11.15 48.48"/><polygon class="cls-1" points="21.74 59.08 26.3 59.08 22.63 61.83 24.05 66.2 20.39 63.51 16.73 66.2 18.18 61.83 14.47 59.08 19.02 59.08 20.39 54.81 21.74 59.08 21.74 59.08 21.74 59.08"/></g></g></svg>